<svg preserveAspectRatio="none" width="100%" height="100%" overflow="visible" style="display: block;" viewBox="0 0 14 14" fill="none" xmlns="http://www.w3.org/2000/svg">
<g id="calendar" clip-path="url(#clip0_171_187)">
<path id="Vector" d="M1.36053 4.08225L6.99987 6.99943M6.99987 6.99943L12.6392 4.08225M6.99987 6.99943L7 12.8338M12.8338 4.66563C12.8336 4.461 12.7736 4.26003 12.6598 4.08287C12.546 3.90571 12.3825 3.75859 12.1856 3.65628L7.6482 1.32253C7.45112 1.22012 7.22757 1.1662 7 1.1662C6.77243 1.1662 6.54888 1.22012 6.3518 1.32253L1.8144 3.65628C1.61752 3.75859 1.45399 3.90571 1.34022 4.08287C1.22645 4.26003 1.16643 4.461 1.1662 4.66563V9.33312C1.16643 9.53775 1.22645 9.73872 1.34022 9.91588C1.45399 10.093 1.61752 10.2402 1.8144 10.3425L6.3518 12.6762C6.54888 12.7786 6.77243 12.8325 7 12.8325C7.22757 12.8325 7.45112 12.7786 7.6482 12.6762L12.1856 10.3425C12.3825 10.2402 12.546 10.093 12.6598 9.91588C12.7736 9.73872 12.8336 9.53775 12.8338 9.33312V4.66563Z" stroke="var(--stroke-0, #01221F)" stroke-width="1.8" stroke-linecap="round"/>
</g>
<defs>
<clipPath id="clip0_171_187">
<rect width="14" height="14" fill="white"/>
</clipPath>
</defs>
</svg>
