<svg preserveAspectRatio="none" width="100%" height="100%" overflow="visible" style="display: block;" viewBox="0 0 27 27" fill="none" xmlns="http://www.w3.org/2000/svg">
<g id="Icon">
<g id="Vector">
<path d="M18 23.625V21.375C18 20.1815 17.5259 19.0369 16.682 18.193C15.8381 17.3491 14.6935 16.875 13.5 16.875H6.75C5.55653 16.875 4.41193 17.3491 3.56802 18.193C2.72411 19.0369 2.25 20.1815 2.25 21.375V23.625" fill="var(--fill-0, #062622)" fill-opacity="0.1"/>
<path d="M18 23.625V21.375C18 20.1815 17.5259 19.0369 16.682 18.193C15.8381 17.3491 14.6935 16.875 13.5 16.875H6.75C5.55653 16.875 4.41193 17.3491 3.56802 18.193C2.72411 19.0369 2.25 20.1815 2.25 21.375V23.625" stroke="var(--stroke-0, #01221F)" stroke-width="2.25" stroke-linecap="round" stroke-linejoin="round"/>
</g>
<path id="Vector_2" d="M10.125 12.375C12.6103 12.375 14.625 10.3603 14.625 7.875C14.625 5.38972 12.6103 3.375 10.125 3.375C7.63972 3.375 5.625 5.38972 5.625 7.875C5.625 10.3603 7.63972 12.375 10.125 12.375Z" fill="var(--fill-0, #062622)" fill-opacity="0.1" stroke="var(--stroke-0, #01221F)" stroke-width="2.25" stroke-linecap="round" stroke-linejoin="round"/>
<g id="Vector_3">
<path d="M24.75 23.625V21.375C24.7493 20.3779 24.4174 19.4094 23.8065 18.6214C23.1957 17.8333 22.3404 17.2705 21.375 17.0212" fill="var(--fill-0, #062622)" fill-opacity="0.1"/>
<path d="M24.75 23.625V21.375C24.7493 20.3779 24.4174 19.4094 23.8065 18.6214C23.1957 17.8333 22.3404 17.2705 21.375 17.0212" stroke="var(--stroke-0, #01221F)" stroke-width="2.25" stroke-linecap="round" stroke-linejoin="round"/>
</g>
<g id="Vector_4">
<path d="M18 3.52125C18.968 3.76909 19.8259 4.33204 20.4386 5.12135C21.0513 5.91066 21.3838 6.88143 21.3838 7.88063C21.3838 8.87982 21.0513 9.85059 20.4386 10.6399C19.8259 11.4292 18.968 11.9922 18 12.24" fill="var(--fill-0, #062622)" fill-opacity="0.1"/>
<path d="M18 3.52125C18.968 3.76909 19.8259 4.33204 20.4386 5.12135C21.0513 5.91066 21.3838 6.88143 21.3838 7.88063C21.3838 8.87982 21.0513 9.85059 20.4386 10.6399C19.8259 11.4292 18.968 11.9922 18 12.24" stroke="var(--stroke-0, #01221F)" stroke-width="2.25" stroke-linecap="round" stroke-linejoin="round"/>
</g>
</g>
</svg>
