<svg preserveAspectRatio="none" width="100%" height="100%" overflow="visible" style="display: block;" viewBox="0 0 21 21" fill="none" xmlns="http://www.w3.org/2000/svg">
<g id="crown">
<path id="Vector" d="M4.37573 18.375H16.6248M10.1174 2.85778C10.1552 2.78919 10.2106 2.73199 10.278 2.69215C10.3455 2.65232 10.4223 2.6313 10.5006 2.6313C10.5789 2.6313 10.6558 2.65232 10.7232 2.69215C10.7906 2.73199 10.8461 2.78919 10.8838 2.85778L13.4666 7.76119C13.5282 7.87473 13.6142 7.97322 13.7184 8.0496C13.8225 8.12597 13.9423 8.17834 14.0691 8.20293C14.1959 8.22752 14.3266 8.22373 14.4517 8.19183C14.5769 8.15993 14.6935 8.10071 14.793 8.01843L18.5351 4.81249C18.6069 4.75406 18.6955 4.71994 18.7879 4.71502C18.8804 4.71011 18.972 4.73466 19.0496 4.78515C19.1273 4.83563 19.1869 4.90945 19.2199 4.99597C19.2529 5.08249 19.2576 5.17725 19.2333 5.26661L16.7537 14.2317C16.7031 14.4151 16.5941 14.5771 16.4431 14.693C16.2922 14.8089 16.1076 14.8724 15.9173 14.8739H5.08479C4.89435 14.8726 4.70954 14.8092 4.55843 14.6932C4.40731 14.5773 4.29814 14.4153 4.24748 14.2317L1.76881 5.26749C1.74453 5.17812 1.74923 5.08336 1.78223 4.99685C1.81523 4.91033 1.87483 4.83651 1.95246 4.78602C2.03008 4.73554 2.12172 4.71098 2.21418 4.7159C2.30665 4.72081 2.39517 4.75494 2.467 4.81337L6.2082 8.0193C6.30777 8.10159 6.42432 8.16081 6.54948 8.19271C6.67465 8.22461 6.80532 8.2284 6.93212 8.2038C7.05892 8.17921 7.17871 8.12685 7.28287 8.05047C7.38704 7.97409 7.47301 7.8756 7.5346 7.76206L10.1174 2.85778Z" stroke="var(--stroke-0, #01221F)" stroke-width="2" stroke-linecap="round"/>
</g>
</svg>
