<svg preserveAspectRatio="none" width="100%" height="100%" overflow="visible" style="display: block;" viewBox="0 0 16.2 16.2" fill="none" xmlns="http://www.w3.org/2000/svg">
<g id="eye">
<path id="Vector" d="M1.39165 7.86576C1.3354 8.01731 1.3354 8.18402 1.39165 8.33556C1.93955 9.66406 2.86957 10.8 4.06382 11.5993C5.25807 12.3986 6.66276 12.8252 8.0998 12.8252C9.53685 12.8252 10.9415 12.3986 12.1358 11.5993C13.33 10.8 14.2601 9.66406 14.808 8.33556C14.8642 8.18402 14.8642 8.01731 14.808 7.86576C14.2601 6.53727 13.33 5.40137 12.1358 4.60207C10.9415 3.80278 9.53685 3.37608 8.0998 3.37608C6.66276 3.37608 5.25807 3.80278 4.06382 4.60207C2.86957 5.40137 1.93955 6.53727 1.39165 7.86576Z" stroke="var(--stroke-0, #01221F)" stroke-width="2" stroke-linecap="round"/>
</g>
</svg>
