<svg preserveAspectRatio="none" width="100%" height="100%" overflow="visible" style="display: block;" viewBox="0 0 12.6 12.6" fill="none" xmlns="http://www.w3.org/2000/svg">
<g id="eye" clip-path="url(#clip0_173_267)">
<path id="Vector" d="M1.0824 6.11782C1.03864 6.23569 1.03864 6.36535 1.0824 6.48322C1.50854 7.51649 2.23189 8.39997 3.16075 9.02165C4.08961 9.64332 5.18214 9.97519 6.29985 9.97519C7.41755 9.97519 8.51008 9.64332 9.43894 9.02165C10.3678 8.39997 11.0912 7.51649 11.5173 6.48322C11.561 6.36535 11.561 6.23569 11.5173 6.11782C11.0912 5.08454 10.3678 4.20106 9.43894 3.57939C8.51008 2.95771 7.41755 2.62584 6.29985 2.62584C5.18214 2.62584 4.08961 2.95771 3.16075 3.57939C2.23189 4.20106 1.50854 5.08454 1.0824 6.11782Z" stroke="var(--stroke-0, #01221F)" stroke-width="2" stroke-linecap="round"/>
</g>
<defs>
<clipPath id="clip0_173_267">
<rect width="12.6" height="12.6" fill="white"/>
</clipPath>
</defs>
</svg>
