<svg preserveAspectRatio="none" width="100%" height="100%" overflow="visible" style="display: block;" viewBox="0 0 73 12" fill="none" xmlns="http://www.w3.org/2000/svg">
<g id="Frame">
<path id="Vector" d="M6.31889 0.0501585C6.26434 0.0829439 6.22034 0.129837 6.19186 0.185545L4.69115 3.12954C4.59216 3.3235 4.44598 3.49127 4.26516 3.61841C4.08435 3.74555 3.87434 3.82825 3.65319 3.8594L0.296243 4.33444C0.232356 4.34318 0.17229 4.36912 0.122889 4.4093C0.0734868 4.44948 0.0367349 4.50229 0.0168195 4.5617C-0.00309591 4.62111 -0.00537413 4.68474 0.0102445 4.74535C0.0258631 4.80595 0.0587505 4.86109 0.10516 4.90449L2.53334 7.19286C2.69362 7.34396 2.81353 7.53055 2.88271 7.73651C2.95189 7.94248 2.96828 8.16165 2.93046 8.37511L2.35786 11.6085C2.34672 11.67 2.35362 11.7333 2.37778 11.7911C2.40194 11.849 2.4424 11.8991 2.49454 11.9359C2.54668 11.9726 2.60841 11.9944 2.67272 11.9988C2.73703 12.0032 2.80133 11.9901 2.85831 11.9609L5.85909 10.4332C6.05686 10.3327 6.27689 10.2802 6.50026 10.2802C6.72363 10.2802 6.94366 10.3327 7.14143 10.4332L10.1429 11.9609C10.1999 11.9903 10.2642 12.0035 10.3287 11.9992C10.3931 11.9949 10.4549 11.9731 10.5072 11.9363C10.5594 11.8996 10.5999 11.8494 10.6241 11.7914C10.6483 11.7335 10.6552 11.6701 10.644 11.6085L10.0707 8.37449C10.0331 8.16112 10.0495 7.94209 10.1187 7.73625C10.1879 7.53041 10.3077 7.34393 10.4678 7.19286L12.896 4.90386C12.942 4.86041 12.9746 4.80537 12.99 4.74495C13.0054 4.68453 13.003 4.62114 12.9831 4.56196C12.9632 4.50278 12.9266 4.45016 12.8775 4.41007C12.8283 4.36997 12.7685 4.34399 12.7049 4.33507L9.34733 3.8594C9.12643 3.82801 8.9167 3.7452 8.73614 3.61807C8.55558 3.49095 8.40958 3.32331 8.31067 3.12954L6.80931 0.185545C6.78082 0.129837 6.73682 0.0829439 6.68227 0.0501585C6.62772 0.017373 6.56479 0 6.50058 0C6.43638 0 6.37344 0.017373 6.31889 0.0501585Z" fill="var(--fill-0, #E5DF89)"/>
<path id="Vector_2" d="M21.3189 0.0501585C21.2643 0.0829439 21.2203 0.129837 21.1919 0.185545L19.6911 3.12954C19.5922 3.3235 19.446 3.49127 19.2652 3.61841C19.0844 3.74555 18.8743 3.82825 18.6532 3.8594L15.2962 4.33444C15.2324 4.34318 15.1723 4.36912 15.1229 4.4093C15.0735 4.44948 15.0367 4.50229 15.0168 4.5617C14.9969 4.62111 14.9946 4.68474 15.0102 4.74535C15.0259 4.80595 15.0588 4.86109 15.1052 4.90449L17.5333 7.19286C17.6936 7.34396 17.8135 7.53055 17.8827 7.73651C17.9519 7.94248 17.9683 8.16165 17.9305 8.37511L17.3579 11.6085C17.3467 11.67 17.3536 11.7333 17.3778 11.7911C17.4019 11.849 17.4424 11.8991 17.4945 11.9359C17.5467 11.9726 17.6084 11.9944 17.6727 11.9988C17.737 12.0032 17.8013 11.9901 17.8583 11.9609L20.8591 10.4332C21.0569 10.3327 21.2769 10.2802 21.5003 10.2802C21.7236 10.2802 21.9437 10.3327 22.1414 10.4332L25.1429 11.9609C25.1999 11.9903 25.2642 12.0035 25.3287 11.9992C25.3931 11.9949 25.4549 11.9731 25.5072 11.9363C25.5594 11.8996 25.5999 11.8494 25.6241 11.7914C25.6483 11.7335 25.6552 11.6701 25.644 11.6085L25.0707 8.37449C25.0331 8.16112 25.0495 7.94209 25.1187 7.73625C25.1879 7.53041 25.3077 7.34393 25.4678 7.19286L27.896 4.90386C27.942 4.86041 27.9746 4.80537 27.99 4.74495C28.0054 4.68453 28.003 4.62114 27.9831 4.56196C27.9632 4.50278 27.9266 4.45016 27.8775 4.41007C27.8283 4.36997 27.7685 4.34399 27.7049 4.33507L24.3473 3.8594C24.1264 3.82801 23.9167 3.7452 23.7361 3.61807C23.5556 3.49095 23.4096 3.32331 23.3107 3.12954L21.8093 0.185545C21.7808 0.129837 21.7368 0.0829439 21.6823 0.0501585C21.6277 0.017373 21.5648 0 21.5006 0C21.4364 0 21.3734 0.017373 21.3189 0.0501585Z" fill="var(--fill-0, #E5DF89)"/>
<path id="Vector_3" d="M36.3189 0.0501585C36.2643 0.0829439 36.2203 0.129837 36.1919 0.185545L34.6911 3.12954C34.5922 3.3235 34.446 3.49127 34.2652 3.61841C34.0844 3.74555 33.8743 3.82825 33.6532 3.8594L30.2962 4.33444C30.2324 4.34318 30.1723 4.36912 30.1229 4.4093C30.0735 4.44948 30.0367 4.50229 30.0168 4.5617C29.9969 4.62111 29.9946 4.68474 30.0102 4.74535C30.0259 4.80595 30.0588 4.86109 30.1052 4.90449L32.5333 7.19286C32.6936 7.34396 32.8135 7.53055 32.8827 7.73651C32.9519 7.94248 32.9683 8.16165 32.9305 8.37511L32.3579 11.6085C32.3467 11.67 32.3536 11.7333 32.3778 11.7911C32.4019 11.849 32.4424 11.8991 32.4945 11.9359C32.5467 11.9726 32.6084 11.9944 32.6727 11.9988C32.737 12.0032 32.8013 11.9901 32.8583 11.9609L35.8591 10.4332C36.0569 10.3327 36.2769 10.2802 36.5003 10.2802C36.7236 10.2802 36.9437 10.3327 37.1414 10.4332L40.1429 11.9609C40.1999 11.9903 40.2642 12.0035 40.3287 11.9992C40.3931 11.9949 40.4549 11.9731 40.5072 11.9363C40.5594 11.8996 40.5999 11.8494 40.6241 11.7914C40.6483 11.7335 40.6552 11.6701 40.644 11.6085L40.0707 8.37449C40.0331 8.16112 40.0495 7.94209 40.1187 7.73625C40.1879 7.53041 40.3077 7.34393 40.4678 7.19286L42.896 4.90386C42.942 4.86041 42.9746 4.80537 42.99 4.74495C43.0054 4.68453 43.003 4.62114 42.9831 4.56196C42.9632 4.50278 42.9266 4.45016 42.8775 4.41007C42.8283 4.36997 42.7685 4.34399 42.7049 4.33507L39.3473 3.8594C39.1264 3.82801 38.9167 3.7452 38.7361 3.61807C38.5556 3.49095 38.4096 3.32331 38.3107 3.12954L36.8093 0.185545C36.7808 0.129837 36.7368 0.0829439 36.6823 0.0501585C36.6277 0.017373 36.5648 0 36.5006 0C36.4364 0 36.3734 0.017373 36.3189 0.0501585Z" fill="var(--fill-0, #E5DF89)"/>
<path id="Vector_4" d="M51.3189 0.0501585C51.2643 0.0829439 51.2203 0.129837 51.1919 0.185545L49.6911 3.12954C49.5922 3.3235 49.446 3.49127 49.2652 3.61841C49.0844 3.74555 48.8743 3.82825 48.6532 3.8594L45.2962 4.33444C45.2324 4.34318 45.1723 4.36912 45.1229 4.4093C45.0735 4.44948 45.0367 4.50229 45.0168 4.5617C44.9969 4.62111 44.9946 4.68474 45.0102 4.74535C45.0259 4.80595 45.0588 4.86109 45.1052 4.90449L47.5333 7.19286C47.6936 7.34396 47.8135 7.53055 47.8827 7.73651C47.9519 7.94248 47.9683 8.16165 47.9305 8.37511L47.3579 11.6085C47.3467 11.67 47.3536 11.7333 47.3778 11.7911C47.4019 11.849 47.4424 11.8991 47.4945 11.9359C47.5467 11.9726 47.6084 11.9944 47.6727 11.9988C47.737 12.0032 47.8013 11.9901 47.8583 11.9609L50.8591 10.4332C51.0569 10.3327 51.2769 10.2802 51.5003 10.2802C51.7236 10.2802 51.9437 10.3327 52.1414 10.4332L55.1429 11.9609C55.1999 11.9903 55.2642 12.0035 55.3287 11.9992C55.3931 11.9949 55.4549 11.9731 55.5072 11.9363C55.5594 11.8996 55.5999 11.8494 55.6241 11.7914C55.6483 11.7335 55.6552 11.6701 55.644 11.6085L55.0707 8.37449C55.0331 8.16112 55.0495 7.94209 55.1187 7.73625C55.1879 7.53041 55.3077 7.34393 55.4678 7.19286L57.896 4.90386C57.942 4.86041 57.9746 4.80537 57.99 4.74495C58.0054 4.68453 58.003 4.62114 57.9831 4.56196C57.9632 4.50278 57.9266 4.45016 57.8775 4.41007C57.8283 4.36997 57.7685 4.34399 57.7049 4.33507L54.3473 3.8594C54.1264 3.82801 53.9167 3.7452 53.7361 3.61807C53.5556 3.49095 53.4096 3.32331 53.3107 3.12954L51.8093 0.185545C51.7808 0.129837 51.7368 0.0829439 51.6823 0.0501585C51.6277 0.017373 51.5648 0 51.5006 0C51.4364 0 51.3734 0.017373 51.3189 0.0501585Z" fill="var(--fill-0, #E5DF89)"/>
<path id="Vector_5" d="M66.3189 0.0501585C66.2643 0.0829439 66.2203 0.129837 66.1919 0.185545L64.6911 3.12954C64.5922 3.3235 64.446 3.49127 64.2652 3.61841C64.0844 3.74555 63.8743 3.82825 63.6532 3.8594L60.2962 4.33444C60.2324 4.34318 60.1723 4.36912 60.1229 4.4093C60.0735 4.44948 60.0367 4.50229 60.0168 4.5617C59.9969 4.62111 59.9946 4.68474 60.0102 4.74535C60.0259 4.80595 60.0588 4.86109 60.1052 4.90449L62.5333 7.19286C62.6936 7.34396 62.8135 7.53055 62.8827 7.73651C62.9519 7.94248 62.9683 8.16165 62.9305 8.37511L62.3579 11.6085C62.3467 11.67 62.3536 11.7333 62.3778 11.7911C62.4019 11.849 62.4424 11.8991 62.4945 11.9359C62.5467 11.9726 62.6084 11.9944 62.6727 11.9988C62.737 12.0032 62.8013 11.9901 62.8583 11.9609L65.8591 10.4332C66.0569 10.3327 66.2769 10.2802 66.5003 10.2802C66.7236 10.2802 66.9437 10.3327 67.1414 10.4332L70.1429 11.9609C70.1999 11.9903 70.2642 12.0035 70.3287 11.9992C70.3931 11.9949 70.4549 11.9731 70.5072 11.9363C70.5594 11.8996 70.5999 11.8494 70.6241 11.7914C70.6483 11.7335 70.6552 11.6701 70.644 11.6085L70.0707 8.37449C70.0331 8.16112 70.0495 7.94209 70.1187 7.73625C70.1879 7.53041 70.3077 7.34393 70.4678 7.19286L72.896 4.90386C72.942 4.86041 72.9746 4.80537 72.99 4.74495C73.0054 4.68453 73.003 4.62114 72.9831 4.56196C72.9632 4.50278 72.9266 4.45016 72.8775 4.41007C72.8283 4.36997 72.7685 4.34399 72.7049 4.33507L69.3473 3.8594C69.1264 3.82801 68.9167 3.7452 68.7361 3.61807C68.5556 3.49095 68.4096 3.32331 68.3107 3.12954L66.8093 0.185545C66.7808 0.129837 66.7368 0.0829439 66.6823 0.0501585C66.6277 0.017373 66.5648 0 66.5006 0C66.4364 0 66.3734 0.017373 66.3189 0.0501585Z" fill="var(--fill-0, #E5DF89)"/>
</g>
</svg>
