<svg preserveAspectRatio="none" width="100%" height="100%" overflow="visible" style="display: block;" viewBox="0 0 14 15" fill="none" xmlns="http://www.w3.org/2000/svg">
<g id="phone" clip-path="url(#clip0_170_113)">
<path id="Vector" d="M8.6196 10.5091C8.47628 10.5449 8.32504 10.5309 8.1908 10.4692C6.38538 9.58312 4.92434 8.12391 4.036 6.3196C3.97021 6.18464 3.95317 6.03107 3.98776 5.88498C4.02236 5.73888 4.10647 5.60927 4.2258 5.51815L4.53 5.29C4.69145 5.16891 4.8225 5.01189 4.91276 4.83138C5.00301 4.65087 5.05 4.45182 5.05 4.25V2.3C5.05 1.95522 4.91304 1.62456 4.66924 1.38076C4.42544 1.13696 4.09478 1 3.75 1H1.8C1.45522 1 1.12456 1.13696 0.880761 1.38076C0.636964 1.62456 0.5 1.95522 0.5 2.3C0.5 5.40303 1.73268 8.37897 3.92685 10.5731C6.12103 12.7673 9.09697 14 12.2 14C12.5448 14 12.8754 13.863 13.1192 13.6192C13.363 13.3754 13.5 13.0448 13.5 12.7V10.75C13.5 10.4052 13.363 10.0746 13.1192 9.83076C12.8754 9.58696 12.5448 9.45 12.2 9.45H10.25C10.0482 9.45 9.84913 9.49699 9.66862 9.58724C9.48811 9.6775 9.33109 9.80855 9.21 9.97L8.97925 10.2722C8.88977 10.3898 8.76292 10.4733 8.6196 10.5091Z" stroke="var(--stroke-0, white)" stroke-linecap="round"/>
</g>
<defs>
<clipPath id="clip0_170_113">
<rect width="14" height="15" fill="white"/>
</clipPath>
</defs>
</svg>
