<svg preserveAspectRatio="none" width="100%" height="100%" overflow="visible" style="display: block;" viewBox="0 0 27.5966 27.3333" fill="none" xmlns="http://www.w3.org/2000/svg">
<g id="Icon">
<path id="Vector" d="M4.33332 1.66667C3.62608 1.66667 2.94781 1.94762 2.44771 2.44772C1.94762 2.94781 1.66667 3.62609 1.66667 4.33333V12.3333C1.66667 13.0406 1.94762 13.7189 2.44771 14.219C2.94781 14.719 3.62608 15 4.33332 15C4.68694 15 5.02608 15.1405 5.27613 15.3905C5.52617 15.6406 5.66665 15.9797 5.66665 16.3333V17.6667C5.66665 18.3739 5.3857 19.0522 4.8856 19.5523C4.38551 20.0524 3.70723 20.3333 2.99999 20.3333C2.64637 20.3333 2.30724 20.4738 2.05719 20.7239C1.80714 20.9739 1.66667 21.313 1.66667 21.6667V24.3333C1.66667 24.687 1.80714 25.0261 2.05719 25.2761C2.30724 25.5262 2.64637 25.6667 2.99999 25.6667C5.12172 25.6667 7.15654 24.8238 8.65682 23.3235C10.1571 21.8232 11 19.7884 11 17.6667V4.33333C11 3.62609 10.719 2.94781 10.2189 2.44772C9.71882 1.94762 9.04054 1.66667 8.3333 1.66667H4.33332Z" fill="var(--fill-0, #01221F)" stroke="var(--stroke-0, #01221F)" stroke-width="3.33333" stroke-linecap="round" stroke-linejoin="round"/>
<path id="Vector_2" d="M19.2633 1.66667C18.5561 1.66667 17.8778 1.94762 17.3777 2.44772C16.8776 2.94781 16.5967 3.62609 16.5967 4.33333V12.3333C16.5967 13.0406 16.8776 13.7189 17.3777 14.219C17.8778 14.719 18.5561 15 19.2633 15C19.6169 15 19.9561 15.1405 20.2061 15.3905C20.4562 15.6406 20.5966 15.9797 20.5966 16.3333V17.6667C20.5966 18.3739 20.3157 19.0522 19.8156 19.5523C19.3155 20.0524 18.6372 20.3333 17.93 20.3333C17.5764 20.3333 17.2372 20.4738 16.9872 20.7239C16.7371 20.9739 16.5967 21.313 16.5967 21.6667V24.3333C16.5967 24.687 16.7371 25.0261 16.9872 25.2761C17.2372 25.5262 17.5764 25.6667 17.93 25.6667C20.0517 25.6667 22.0865 24.8238 23.5868 23.3235C25.0871 21.8232 25.93 19.7884 25.93 17.6667V4.33333C25.93 3.62609 25.649 2.94781 25.1489 2.44772C24.6488 1.94762 23.9705 1.66667 23.2633 1.66667H19.2633Z" fill="var(--fill-0, #01221F)" stroke="var(--stroke-0, #01221F)" stroke-width="3.33333" stroke-linecap="round" stroke-linejoin="round"/>
</g>
</svg>
