<svg preserveAspectRatio="none" width="100%" height="100%" overflow="visible" style="display: block;" viewBox="0 0 14 14" fill="none" xmlns="http://www.w3.org/2000/svg">
<g id="rocket" clip-path="url(#clip0_171_176)">
<path id="Vector" d="M7.00047 8.74953V11.6662C7.00047 11.6662 8.76797 11.3454 9.3338 10.4995C9.9638 9.55453 9.3338 7.58287 9.3338 7.58287M7.00047 8.74953C7.81521 8.43945 8.59689 8.04862 9.3338 7.58287M7.00047 8.74953L5.25047 6.99968M5.25047 6.99968C5.56088 6.19435 5.95175 5.42238 6.41713 4.69551C7.09682 3.60875 8.04325 2.71396 9.16638 2.09623C10.2895 1.47851 11.552 1.15839 12.8338 1.16634C12.8338 2.75301 12.3788 5.5412 9.3338 7.58287M5.25047 6.99968L2.3338 6.9993C2.3338 6.9993 2.65463 5.2318 3.50047 4.66597C4.44547 4.03597 6.41713 4.69551 6.41713 4.69551M2.62547 9.62472C1.75047 10.3597 1.4588 12.5414 1.4588 12.5414C1.4588 12.5414 3.64047 12.2497 4.37547 11.3747C4.78963 10.8847 4.7838 10.1322 4.32297 9.67722C4.09623 9.46081 3.79755 9.33576 3.48427 9.32607C3.17098 9.31638 2.86514 9.42273 2.62547 9.62472Z" stroke="var(--stroke-0, #01221F)" stroke-width="2" stroke-linecap="round"/>
</g>
<defs>
<clipPath id="clip0_171_176">
<rect width="14" height="14" fill="white"/>
</clipPath>
</defs>
</svg>
