<svg preserveAspectRatio="none" width="100%" height="100%" overflow="visible" style="display: block;" viewBox="0 0 21 21" fill="none" xmlns="http://www.w3.org/2000/svg">
<g id="sprout">
<path id="Vector" d="M12.2498 8.344V6.125C12.2498 5.19674 12.6185 4.3065 13.2748 3.65013C13.9312 2.99375 14.8213 2.625 15.7495 2.625H17.0618C17.1779 2.625 17.2891 2.67109 17.3712 2.75314C17.4532 2.83519 17.4993 2.94647 17.4993 3.0625V4.375C17.4993 5.30326 17.1306 6.1935 16.4743 6.84987C15.818 7.50625 14.9278 7.875 13.9997 7.875C13.0715 7.875 12.1813 8.24375 11.525 8.90013C10.8687 9.5565 10.5 10.4467 10.5 11.375M10.5 11.375C10.5 13.125 11.3749 14 11.3749 15.75C11.3749 16.6966 11.0679 17.6177 10.5 18.375M10.5 11.375C10.5 10.5625 10.2738 9.76607 9.84666 9.07493C9.41955 8.38378 8.80844 7.82524 8.0818 7.46188C7.35516 7.09853 6.5417 6.94471 5.73258 7.01768C4.92345 7.09065 4.15063 7.38751 3.5007 7.875C3.5007 8.68749 3.72693 9.48393 4.15404 10.1751C4.58115 10.8662 5.19226 11.4248 5.9189 11.7881C6.64554 12.1515 7.459 12.3053 8.26812 12.2323C9.07725 12.1594 9.85007 11.8625 10.5 11.375ZM4.37561 18.375H16.6244" stroke="var(--stroke-0, #01221F)" stroke-width="2" stroke-linecap="round"/>
</g>
</svg>
