<svg preserveAspectRatio="none" width="100%" height="100%" overflow="visible" style="display: block;" viewBox="0 0 22 22" fill="none" xmlns="http://www.w3.org/2000/svg">
<g id="icon-circle">
<rect x="0.5" y="0.5" width="21" height="21" rx="10.5" fill="var(--fill-0, #F3F4F6)"/>
<rect x="0.5" y="0.5" width="21" height="21" rx="10.5" stroke="var(--stroke-0, #E5E7EB)"/>
<path id="Vector" d="M11 7C13.2091 7 15 8.79086 15 11C15 13.2091 13.2091 15 11 15C8.79086 15 7 13.2091 7 11C7 8.79086 8.79086 7 11 7ZM13.207 8.79297C12.8165 8.40244 12.1835 8.40244 11.793 8.79297L11 9.58594L10.207 8.79297C9.81651 8.40244 9.18349 8.40244 8.79297 8.79297C8.40244 9.18349 8.40244 9.81651 8.79297 10.207L9.58594 11L8.79297 11.793C8.40244 12.1835 8.40244 12.8165 8.79297 13.207C9.18349 13.5976 9.81651 13.5976 10.207 13.207L11 12.4141L11.793 13.207C12.1835 13.5976 12.8165 13.5976 13.207 13.207C13.5976 12.8165 13.5976 12.1835 13.207 11.793L12.4141 11L13.207 10.207C13.5976 9.81651 13.5976 9.18349 13.207 8.79297Z" stroke="var(--stroke-0, #9CA3AF)" stroke-width="2" stroke-linecap="round"/>
</g>
</svg>
